<?xml version="1.0" encoding="utf-8"?>
<svg version="1.1" xmlns:xlink="http://www.w3.org/1999/xlink" width="194px" height="225px" xmlns="http://www.w3.org/2000/svg">
  <g transform="matrix(1 0 0 1 -91 -133 )">
    <path d="M 188.947916666667 65  L 129 65  L 129 5.02232142857144  C 131.185763888889 6.19419642857142  132.701388888889 7.3660714285714  133.880208333333 8.53794642857144  L 185.411458333333 59.765625  C 186.590277777778 60.9375  187.769097222222 62.4441964285714  188.947916666667 65  Z M 113 0  L 113 68.3035714285714  C 113.166666666667 71.6517857142857  114.345486111111 74.4977678571429  116.703125 76.8415178571428  C 119.060763888889 79.1852678571428  121.923611111111 80.3571428571428  125.291666666667 81  L 194 81  L 194 212.946428571429  C 194 216.294642857143  192.821180555556 219.140625  190.463541666667 221.484375  C 188.105902777778 223.828125  185.243055555556 225  181.875 225  L 12.125 225  C 8.75694444444445 225  5.89409722222222 223.828125  3.53645833333333 221.484375  C 1.17881944444444 219.140625  0 216.294642857143  0 212.946428571429  L 0 12.0535714285714  C 0 8.70535714285714  1.17881944444444 5.85937499999999  3.53645833333333 3.515625  C 5.89409722222222 1.17187500000001  8.75694444444445 0  12.125 0  L 113 0  Z " fill-rule="nonzero" fill="#000000" stroke="none" transform="matrix(1 0 0 1 91 133 )" />
  </g>
</svg>