<?xml version="1.0" encoding="utf-8"?>
<svg version="1.1" xmlns:xlink="http://www.w3.org/1999/xlink" width="236px" height="225px" xmlns="http://www.w3.org/2000/svg">
  <g transform="matrix(1 0 0 1 -70 -133 )">
    <path d="M 223.959183673469 44.970703125  C 227.547819127651 46.435546875  230.333733493397 48.53515625  232.316926770708 51.26953125  C 236.09443777511 56.8359375  236.9443777511 63.134765625  234.866746698679 70.166015625  L 195.911164465786 202.880859375  C 194.116846738696 209.130859375  190.504601840736 214.3798828125  185.074429771909 218.6279296875  C 179.644257703081 222.8759765625  173.859943977591 225  167.721488595438 225  L 36.9723889555822 225  C 29.7006802721088 225  22.6886754701881 222.3876953125  15.9363745498199 217.1630859375  C 9.18407362945178 211.9384765625  4.48579431772709 205.517578125  1.84153661464586 197.900390625  C -0.424969987995198 191.357421875  -0.519407763105242 185.15625  1.55822328931573 179.296875  C 1.55822328931573 178.90625  1.69987995198079 177.587890625  1.98319327731092 175.341796875  C 2.26650660264106 173.095703125  2.45538215286114 171.2890625  2.54981992797119 169.921875  C 2.64425770308123 169.140625  2.50260104041617 168.0908203125  2.12484993997599 166.7724609375  C 1.74709883953581 165.4541015625  1.60544217687075 164.501953125  1.69987995198079 163.916015625  C 1.88875550220088 162.841796875  2.26650660264106 161.81640625  2.83313325330132 160.83984375  C 3.39975990396158 159.86328125  4.17887154861945 158.7158203125  5.17046818727491 157.3974609375  C 6.16206482593037 156.0791015625  6.94117647058824 154.931640625  7.5078031212485 153.955078125  C 9.67987194877951 150.244140625  11.8047218887555 145.7763671875  13.8823529411765 140.5517578125  C 15.9599839935974 135.3271484375  17.3765506202481 130.859375  18.1320528211285 127.1484375  C 18.4153661464586 126.171875  18.4389755902361 124.70703125  18.202881152461 122.75390625  C 17.9667867146859 120.80078125  17.9431772709084 119.43359375  18.1320528211285 118.65234375  C 18.4153661464586 117.578125  19.218087234894 116.2109375  20.5402160864346 114.55078125  C 21.8623449379752 112.890625  22.6650660264106 111.767578125  22.9483793517407 111.181640625  C 24.9315726290516 107.666015625  26.9147659063625 103.173828125  28.8979591836735 97.705078125  C 30.8811524609844 92.236328125  32.06162464986 87.841796875  32.4393757503001 84.521484375  C 32.5338135254102 83.642578125  32.4157663065226 82.080078125  32.0852340936375 79.833984375  C 31.7547018807523 77.587890625  31.7783113245298 76.220703125  32.15606242497 75.732421875  C 32.5338135254102 74.462890625  33.5726290516207 72.9736328125  35.2725090036014 71.2646484375  C 36.9723889555822 69.5556640625  38.0112044817927 68.45703125  38.3889555822329 67.96875  C 40.1832733093237 65.4296875  42.1900760304122 61.3037109375  44.4093637454982 55.5908203125  C 46.6286514605842 49.8779296875  47.9271708683473 45.166015625  48.3049219687875 41.455078125  C 48.3993597438976 40.673828125  48.2577030812325 39.4287109375  47.8799519807923 37.7197265625  C 47.5022008803521 36.0107421875  47.4077631052421 34.716796875  47.5966386554622 33.837890625  C 47.7855142056823 33.056640625  48.2104841936775 32.177734375  48.8715486194478 31.201171875  C 49.5326130452181 30.224609375  50.3825530212085 29.1015625  51.421368547419 27.83203125  C 52.4601840736295 26.5625  53.2629051620648 25.537109375  53.8295318127251 24.755859375  C 54.5850340136055 23.583984375  55.3641456582633 22.0947265625  56.1668667466987 20.2880859375  C 56.9695878351341 18.4814453125  57.6778711484594 16.7724609375  58.2917166866747 15.1611328125  C 58.90556222489 13.5498046875  59.6610644257703 11.7919921875  60.5582232893157 9.8876953125  C 61.4553821528612 7.98339843750001  62.3761504601841 6.42089843749999  63.3205282112845 5.20019531249999  C 64.264905962385 3.97949218749997  65.516206482593 2.83203124999998  67.0744297719088 1.7578125  C 68.6326530612245 0.683593749999969  70.3325330132053 0.122070312499997  72.1740696278511 0.0732421875000083  C 74.015606242497 0.0244140624999695  76.2585034013606 0.292968750000008  78.9027611044418 0.87890625  L 78.7611044417767 1.318359375  C 82.3497398959584 0.439453125  84.7579031612645 0  85.9855942376951 0  L 193.78631452581 0  C 200.774709883954 0  206.157663065226 2.73437499999998  209.935174069628 8.20312500000001  C 213.71268507403 13.671875  214.56262505002 20.01953125  212.484993997599 27.24609375  L 173.671068427371 159.9609375  C 170.271308523409 171.58203125  166.895158063225 179.0771484375  163.542617046819 182.4462890625  C 160.190076030412 185.8154296875  154.122448979592 187.5  145.339735894358 187  L 22.2400960384154 187  C 19.6902761104442 187.5  17.8959583833533 188.232421875  16.8571428571429 189.697265625  C 15.8183273309324 191.259765625  15.7711084433774 193.359375  16.7154861944778 195.99609375  C 18.9819927971188 202.83203125  25.781512605042 206.25  37.1140456182473 206  L 167.863145258103 206  C 170.601840736295 206.25  173.246098439376 205.4931640625  175.795918367347 203.9794921875  C 178.345738295318 202.4658203125  179.998399359744 200.439453125  180.753901560624 197.900390625  L 223.250900360144 53.3203125  C 223.911964785914 51.171875  224.148059223689 48.388671875  223.959183673469 44.970703125  Z M 84.5690276110444 42.1875  L 81.594237695078 51.5625  C 81.2164865946379 52.83203125  81.3109243697479 53.9306640625  81.8775510204082 54.8583984375  C 82.4441776710684 55.7861328125  83.3885554221689 56.25  84.7106842737095 57  L 170.83793517407 57  C 172.0656262505 56.25  173.269707883153 55.7861328125  174.450180072029 54.8583984375  C 175.630652260904 53.9306640625  176.409763905562 52.83203125  176.787515006002 51.5625  L 179.762304921969 42.1875  C 180.140056022409 40.91796875  180.045618247299 39.8193359375  179.478991596639 38.8916015625  C 178.912364945978 37.9638671875  177.967987194878 37.5  176.645858343337 38  L 90.5186074429772 38  C 89.2909163665466 37.5  88.0868347338936 37.9638671875  86.906362545018 38.8916015625  C 85.7258903561425 39.8193359375  84.9467787114846 40.91796875  84.5690276110444 42.1875  Z M 72.8115246098439 79.6875  L 69.8367346938775 89.0625  C 69.4589835934374 90.33203125  69.5534213685474 91.4306640625  70.1200480192077 92.3583984375  C 70.686674669868 93.2861328125  71.6310524209684 93.75  72.953181272509 94  L 159.080432172869 94  C 160.3081232493 93.75  161.512204881953 93.2861328125  162.692677070828 92.3583984375  C 163.873149259704 91.4306640625  164.652260904362 90.33203125  165.030012004802 89.0625  L 168.004801920768 79.6875  C 168.382553021208 78.41796875  168.288115246098 77.3193359375  167.721488595438 76.3916015625  C 167.154861944778 75.4638671875  166.210484193678 75  164.888355342137 75  L 78.7611044417767 75  C 77.5334133653461 75  76.3293317326931 75.4638671875  75.1488595438175 76.3916015625  C 73.968387354942 77.3193359375  73.1892757102841 78.41796875  72.8115246098439 79.6875  Z " fill-rule="nonzero" fill="#000000" stroke="none" transform="matrix(1 0 0 1 70 133 )" />
  </g>
</svg>