<?xml version="1.0" encoding="utf-8"?>
<svg version="1.1" xmlns:xlink="http://www.w3.org/1999/xlink" width="176px" height="225px" xmlns="http://www.w3.org/2000/svg">
  <g transform="matrix(1 0 0 1 -100 -133 )">
    <path d="M 46.8125 161.907087053571  C 47.6041666666667 162.702287946429  48 163.643973214286  48 164.732142857143  L 48 172.767857142857  C 48 173.856026785714  47.6041666666667 174.797712053571  46.8125 175.592912946429  C 46.0208333333333 176.388113839286  45.0833333333333 176.785714285714  44 176.785714285714  L 36 176.785714285714  C 34.9166666666667 176.785714285714  33.9791666666667 176.388113839286  33.1875 175.592912946429  C 32.3958333333333 174.797712053571  32 173.856026785714  32 172.767857142857  L 32 164.732142857143  C 32 163.643973214286  32.3958333333333 162.702287946429  33.1875 161.907087053571  C 33.9791666666667 161.111886160714  34.9166666666667 160.714285714286  36 160.714285714286  L 44 160.714285714286  C 45.0833333333333 160.714285714286  46.0208333333333 161.111886160714  46.8125 161.907087053571  Z M 46.8125 129.764229910714  C 47.6041666666667 130.559430803571  48 131.501116071429  48 132.589285714286  L 48 140.625  C 48 141.713169642857  47.6041666666667 142.654854910714  46.8125 143.450055803571  C 46.0208333333333 144.245256696429  45.0833333333333 144.642857142857  44 144.642857142857  L 36 144.642857142857  C 34.9166666666667 144.642857142857  33.9791666666667 144.245256696429  33.1875 143.450055803571  C 32.3958333333333 142.654854910714  32 141.713169642857  32 140.625  L 32 132.589285714286  C 32 131.501116071429  32.3958333333333 130.559430803571  33.1875 129.764229910714  C 33.9791666666667 128.969029017857  34.9166666666667 128.571428571429  36 128.571428571429  L 44 128.571428571429  C 45.0833333333333 128.571428571429  46.0208333333333 128.969029017857  46.8125 129.764229910714  Z M 78.8125 129.764229910714  C 79.6041666666667 130.559430803571  80 131.501116071429  80 132.589285714286  L 80 140.625  C 80 141.713169642857  79.6041666666667 142.654854910714  78.8125 143.450055803571  C 78.0208333333333 144.245256696429  77.0833333333333 144.642857142857  76 144.642857142857  L 68 144.642857142857  C 66.9166666666667 144.642857142857  65.9791666666667 144.245256696429  65.1875 143.450055803571  C 64.3958333333333 142.654854910714  64 141.713169642857  64 140.625  L 64 132.589285714286  C 64 131.501116071429  64.3958333333333 130.559430803571  65.1875 129.764229910714  C 65.9791666666667 128.969029017857  66.9166666666667 128.571428571429  68 128.571428571429  L 76 128.571428571429  C 77.0833333333333 128.571428571429  78.0208333333333 128.969029017857  78.8125 129.764229910714  Z M 46.8125 97.6213727678572  C 47.6041666666667 98.4165736607143  48 99.3582589285714  48 100.446428571429  L 48 108.482142857143  C 48 109.5703125  47.6041666666667 110.511997767857  46.8125 111.307198660714  C 46.0208333333333 112.102399553571  45.0833333333333 112.5  44 112.5  L 36 112.5  C 34.9166666666667 112.5  33.9791666666667 112.102399553571  33.1875 111.307198660714  C 32.3958333333333 110.511997767857  32 109.5703125  32 108.482142857143  L 32 100.446428571429  C 32 99.3582589285714  32.3958333333333 98.4165736607143  33.1875 97.6213727678572  C 33.9791666666667 96.826171875  34.9166666666667 96.4285714285714  36 96.4285714285714  L 44 96.4285714285714  C 45.0833333333333 96.4285714285714  46.0208333333333 96.826171875  46.8125 97.6213727678572  Z M 142.8125 161.907087053571  C 143.604166666667 162.702287946429  144 163.643973214286  144 164.732142857143  L 144 172.767857142857  C 144 173.856026785714  143.604166666667 174.797712053571  142.8125 175.592912946429  C 142.020833333333 176.388113839286  141.083333333333 176.785714285714  140 176.785714285714  L 132 176.785714285714  C 130.916666666667 176.785714285714  129.979166666667 176.388113839286  129.1875 175.592912946429  C 128.395833333333 174.797712053571  128 173.856026785714  128 172.767857142857  L 128 164.732142857143  C 128 163.643973214286  128.395833333333 162.702287946429  129.1875 161.907087053571  C 129.979166666667 161.111886160714  130.916666666667 160.714285714286  132 160.714285714286  L 140 160.714285714286  C 141.083333333333 160.714285714286  142.020833333333 161.111886160714  142.8125 161.907087053571  Z M 110.8125 129.764229910714  C 111.604166666667 130.559430803571  112 131.501116071429  112 132.589285714286  L 112 140.625  C 112 141.713169642857  111.604166666667 142.654854910714  110.8125 143.450055803571  C 110.020833333333 144.245256696429  109.083333333333 144.642857142857  108 144.642857142857  L 100 144.642857142857  C 98.9166666666667 144.642857142857  97.9791666666667 144.245256696429  97.1875 143.450055803571  C 96.3958333333333 142.654854910714  96 141.713169642857  96 140.625  L 96 132.589285714286  C 96 131.501116071429  96.3958333333333 130.559430803571  97.1875 129.764229910714  C 97.9791666666667 128.969029017857  98.9166666666667 128.571428571429  100 128.571428571429  L 108 128.571428571429  C 109.083333333333 128.571428571429  110.020833333333 128.969029017857  110.8125 129.764229910714  Z M 78.8125 97.6213727678572  C 79.6041666666667 98.4165736607143  80 99.3582589285714  80 100.446428571429  L 80 108.482142857143  C 80 109.5703125  79.6041666666667 110.511997767857  78.8125 111.307198660714  C 78.0208333333333 112.102399553571  77.0833333333333 112.5  76 112.5  L 68 112.5  C 66.9166666666667 112.5  65.9791666666667 112.102399553571  65.1875 111.307198660714  C 64.3958333333333 110.511997767857  64 109.5703125  64 108.482142857143  L 64 100.446428571429  C 64 99.3582589285714  64.3958333333333 98.4165736607143  65.1875 97.6213727678572  C 65.9791666666667 96.826171875  66.9166666666667 96.4285714285714  68 96.4285714285714  L 76 96.4285714285714  C 77.0833333333333 96.4285714285714  78.0208333333333 96.826171875  78.8125 97.6213727678572  Z M 46.8125 65.478515625  C 47.6041666666667 66.2737165178571  48 67.2154017857143  48 68.3035714285714  L 48 76.3392857142857  C 48 77.4274553571428  47.6041666666667 78.369140625  46.8125 79.1643415178572  C 46.0208333333333 79.9595424107143  45.0833333333333 80.3571428571428  44 80.3571428571428  L 36 80.3571428571428  C 34.9166666666667 80.3571428571428  33.9791666666667 79.9595424107143  33.1875 79.1643415178572  C 32.3958333333333 78.369140625  32 77.4274553571428  32 76.3392857142857  L 32 68.3035714285714  C 32 67.2154017857143  32.3958333333333 66.2737165178571  33.1875 65.478515625  C 33.9791666666667 64.6833147321428  34.9166666666667 64.2857142857143  36 64.2857142857143  L 44 64.2857142857143  C 45.0833333333333 64.2857142857143  46.0208333333333 64.6833147321428  46.8125 65.478515625  Z M 142.8125 129.764229910714  C 143.604166666667 130.559430803571  144 131.501116071429  144 132.589285714286  L 144 140.625  C 144 141.713169642857  143.604166666667 142.654854910714  142.8125 143.450055803571  C 142.020833333333 144.245256696429  141.083333333333 144.642857142857  140 144.642857142857  L 132 144.642857142857  C 130.916666666667 144.642857142857  129.979166666667 144.245256696429  129.1875 143.450055803571  C 128.395833333333 142.654854910714  128 141.713169642857  128 140.625  L 128 132.589285714286  C 128 131.501116071429  128.395833333333 130.559430803571  129.1875 129.764229910714  C 129.979166666667 128.969029017857  130.916666666667 128.571428571429  132 128.571428571429  L 140 128.571428571429  C 141.083333333333 128.571428571429  142.020833333333 128.969029017857  142.8125 129.764229910714  Z M 110.8125 97.6213727678572  C 111.604166666667 98.4165736607143  112 99.3582589285714  112 100.446428571429  L 112 108.482142857143  C 112 109.5703125  111.604166666667 110.511997767857  110.8125 111.307198660714  C 110.020833333333 112.102399553571  109.083333333333 112.5  108 112.5  L 100 112.5  C 98.9166666666667 112.5  97.9791666666667 112.102399553571  97.1875 111.307198660714  C 96.3958333333333 110.511997767857  96 109.5703125  96 108.482142857143  L 96 100.446428571429  C 96 99.3582589285714  96.3958333333333 98.4165736607143  97.1875 97.6213727678572  C 97.9791666666667 96.826171875  98.9166666666667 96.4285714285714  100 96.4285714285714  L 108 96.4285714285714  C 109.083333333333 96.4285714285714  110.020833333333 96.826171875  110.8125 97.6213727678572  Z M 78.8125 65.478515625  C 79.6041666666667 66.2737165178571  80 67.2154017857143  80 68.3035714285714  L 80 76.3392857142857  C 80 77.4274553571428  79.6041666666667 78.369140625  78.8125 79.1643415178572  C 78.0208333333333 79.9595424107143  77.0833333333333 80.3571428571428  76 80.3571428571428  L 68 80.3571428571428  C 66.9166666666667 80.3571428571428  65.9791666666667 79.9595424107143  65.1875 79.1643415178572  C 64.3958333333333 78.369140625  64 77.4274553571428  64 76.3392857142857  L 64 68.3035714285714  C 64 67.2154017857143  64.3958333333333 66.2737165178571  65.1875 65.478515625  C 65.9791666666667 64.6833147321428  66.9166666666667 64.2857142857143  68 64.2857142857143  L 76 64.2857142857143  C 77.0833333333333 64.2857142857143  78.0208333333333 64.6833147321428  78.8125 65.478515625  Z M 46.8125 33.3356584821428  C 47.6041666666667 34.130859375  48 35.0725446428571  48 36.1607142857143  L 48 44.1964285714286  C 48 45.2845982142857  47.6041666666667 46.2262834821428  46.8125 47.021484375  C 46.0208333333333 47.8166852678571  45.0833333333333 48.2142857142857  44 48.2142857142857  L 36 48.2142857142857  C 34.9166666666667 48.2142857142857  33.9791666666667 47.8166852678571  33.1875 47.021484375  C 32.3958333333333 46.2262834821428  32 45.2845982142857  32 44.1964285714286  L 32 36.1607142857143  C 32 35.0725446428571  32.3958333333333 34.130859375  33.1875 33.3356584821428  C 33.9791666666667 32.5404575892857  34.9166666666667 32.1428571428572  36 32.1428571428572  L 44 32.1428571428572  C 45.0833333333333 32.1428571428572  46.0208333333333 32.5404575892857  46.8125 33.3356584821428  Z M 142.8125 97.6213727678572  C 143.604166666667 98.4165736607143  144 99.3582589285714  144 100.446428571429  L 144 108.482142857143  C 144 109.5703125  143.604166666667 110.511997767857  142.8125 111.307198660714  C 142.020833333333 112.102399553571  141.083333333333 112.5  140 112.5  L 132 112.5  C 130.916666666667 112.5  129.979166666667 112.102399553571  129.1875 111.307198660714  C 128.395833333333 110.511997767857  128 109.5703125  128 108.482142857143  L 128 100.446428571429  C 128 99.3582589285714  128.395833333333 98.4165736607143  129.1875 97.6213727678572  C 129.979166666667 96.826171875  130.916666666667 96.4285714285714  132 96.4285714285714  L 140 96.4285714285714  C 141.083333333333 96.4285714285714  142.020833333333 96.826171875  142.8125 97.6213727678572  Z M 110.8125 65.478515625  C 111.604166666667 66.2737165178571  112 67.2154017857143  112 68.3035714285714  L 112 76.3392857142857  C 112 77.4274553571428  111.604166666667 78.369140625  110.8125 79.1643415178572  C 110.020833333333 79.9595424107143  109.083333333333 80.3571428571428  108 80.3571428571428  L 100 80.3571428571428  C 98.9166666666667 80.3571428571428  97.9791666666667 79.9595424107143  97.1875 79.1643415178572  C 96.3958333333333 78.369140625  96 77.4274553571428  96 76.3392857142857  L 96 68.3035714285714  C 96 67.2154017857143  96.3958333333333 66.2737165178571  97.1875 65.478515625  C 97.9791666666667 64.6833147321428  98.9166666666667 64.2857142857143  100 64.2857142857143  L 108 64.2857142857143  C 109.083333333333 64.2857142857143  110.020833333333 64.6833147321428  110.8125 65.478515625  Z M 78.8125 33.3356584821428  C 79.6041666666667 34.130859375  80 35.0725446428571  80 36.1607142857143  L 80 44.1964285714286  C 80 45.2845982142857  79.6041666666667 46.2262834821428  78.8125 47.021484375  C 78.0208333333333 47.8166852678571  77.0833333333333 48.2142857142857  76 48.2142857142857  L 68 48.2142857142857  C 66.9166666666667 48.2142857142857  65.9791666666667 47.8166852678571  65.1875 47.021484375  C 64.3958333333333 46.2262834821428  64 45.2845982142857  64 44.1964285714286  L 64 36.1607142857143  C 64 35.0725446428571  64.3958333333333 34.130859375  65.1875 33.3356584821428  C 65.9791666666667 32.5404575892857  66.9166666666667 32.1428571428572  68 32.1428571428572  L 76 32.1428571428572  C 77.0833333333333 32.1428571428572  78.0208333333333 32.5404575892857  78.8125 33.3356584821428  Z M 142.8125 65.478515625  C 143.604166666667 66.2737165178571  144 67.2154017857143  144 68.3035714285714  L 144 76.3392857142857  C 144 77.4274553571428  143.604166666667 78.369140625  142.8125 79.1643415178572  C 142.020833333333 79.9595424107143  141.083333333333 80.3571428571428  140 80.3571428571428  L 132 80.3571428571428  C 130.916666666667 80.3571428571428  129.979166666667 79.9595424107143  129.1875 79.1643415178572  C 128.395833333333 78.369140625  128 77.4274553571428  128 76.3392857142857  L 128 68.3035714285714  C 128 67.2154017857143  128.395833333333 66.2737165178571  129.1875 65.478515625  C 129.979166666667 64.6833147321428  130.916666666667 64.2857142857143  132 64.2857142857143  L 140 64.2857142857143  C 141.083333333333 64.2857142857143  142.020833333333 64.6833147321428  142.8125 65.478515625  Z M 110.8125 33.3356584821428  C 111.604166666667 34.130859375  112 35.0725446428571  112 36.1607142857143  L 112 44.1964285714286  C 112 45.2845982142857  111.604166666667 46.2262834821428  110.8125 47.021484375  C 110.020833333333 47.8166852678571  109.083333333333 48.2142857142857  108 48.2142857142857  L 100 48.2142857142857  C 98.9166666666667 48.2142857142857  97.9791666666667 47.8166852678571  97.1875 47.021484375  C 96.3958333333333 46.2262834821428  96 45.2845982142857  96 44.1964285714286  L 96 36.1607142857143  C 96 35.0725446428571  96.3958333333333 34.130859375  97.1875 33.3356584821428  C 97.9791666666667 32.5404575892857  98.9166666666667 32.1428571428572  100 32.1428571428572  L 108 32.1428571428572  C 109.083333333333 32.1428571428572  110.020833333333 32.5404575892857  110.8125 33.3356584821428  Z M 142.8125 33.3356584821428  C 143.604166666667 34.130859375  144 35.0725446428571  144 36.1607142857143  L 144 44.1964285714286  C 144 45.2845982142857  143.604166666667 46.2262834821428  142.8125 47.021484375  C 142.020833333333 47.8166852678571  141.083333333333 48.2142857142857  140 48.2142857142857  L 132 48.2142857142857  C 130.916666666667 48.2142857142857  129.979166666667 47.8166852678571  129.1875 47.021484375  C 128.395833333333 46.2262834821428  128 45.2845982142857  128 44.1964285714286  L 128 36.1607142857143  C 128 35.0725446428571  128.395833333333 34.130859375  129.1875 33.3356584821428  C 129.979166666667 32.5404575892857  130.916666666667 32.1428571428572  132 32.1428571428572  L 140 32.1428571428572  C 141.083333333333 32.1428571428572  142.020833333333 32.5404575892857  142.8125 33.3356584821428  Z M 112 180.803571428571  L 112 209  L 160 209  L 160 16  L 16 16  L 16 209  L 64 209  L 64 180.803571428571  C 64 179.715401785714  64.3958333333333 178.773716517857  65.1875 177.978515625  C 65.9791666666667 177.183314732143  66.9166666666667 176.785714285714  68 176  L 108 176  C 109.083333333333 176.785714285714  110.020833333333 177.183314732143  110.8125 177.978515625  C 111.604166666667 178.773716517857  112 179.715401785714  112 180.803571428571  Z M 173.625 2.38560267857144  C 175.208333333333 3.97600446428568  176 5.85937499999999  176 8.03571428571428  L 176 216.964285714286  C 176 219.140625  175.208333333333 221.023995535714  173.625 222.614397321429  C 172.041666666667 224.204799107143  170.166666666667 225  168 225  L 8 225  C 5.83333333333333 225  3.95833333333333 224.204799107143  2.375 222.614397321429  C 0.791666666666667 221.023995535714  0 219.140625  0 216.964285714286  L 0 8.03571428571428  C 0 5.85937499999999  0.791666666666667 3.97600446428568  2.375 2.38560267857144  C 3.95833333333333 0.795200892857162  5.83333333333333 0  8 0  L 168 0  C 170.166666666667 0  172.041666666667 0.795200892857162  173.625 2.38560267857144  Z " fill-rule="nonzero" fill="#000000" stroke="none" transform="matrix(1 0 0 1 100 133 )" />
  </g>
</svg>