<?xml version="1.0" encoding="utf-8"?>
<svg version="1.1" xmlns:xlink="http://www.w3.org/1999/xlink" width="313px" height="225px" xmlns="http://www.w3.org/2000/svg">
  <g transform="matrix(1 0 0 1 -31 -133 )">
    <path d="M 171.321283095723 213.145161290323  C 163.565342837746 221.048387096774  158.624915139172 225  156.5 225  C 154.375084860828 225  149.434657162254 221.048387096774  141.678716904277 213.145161290323  C 133.9227766463 205.241935483871  130.044806517312 200.215053763441  130.044806517312 198.064516129032  C 130.044806517312 194.623655913979  133.364986422268 191.720430107527  140.005346232179 189.354838709677  C 146.645706042091 186.989247311828  152.143923964698 185.806451612903  156.5 185.806451612903  C 160.856076035302 185.806451612903  166.354293957909 186.989247311828  172.994653767821 189.354838709677  C 179.635013577733 191.720430107527  182.955193482688 194.623655913979  182.955193482688 198.064516129032  C 182.955193482688 200.215053763441  179.0772233537 205.241935483871  171.321283095723 213.145161290323  Z M 214.43049898167 169.193548387097  C 206.408944331297 177.258064516129  201.441955193483 181.290322580645  199.529531568228 181.290322580645  C 199.317040054311 181.290322580645  197.192124915139 179.94623655914  193.154786150713 177.258064516129  C 189.117447386287 174.569892473118  183.725475220638 171.881720430107  176.978869653768 169.193548387097  C 170.232264086898 166.505376344086  163.405974202308 165.161290322581  156.5 165.161290322581  C 149.594025797692 165.161290322581  142.767735913103 166.505376344086  136.021130346232 169.193548387097  C 129.274524779362 171.881720430107  123.909114052953 174.569892473118  119.924898167006 177.258064516129  C 115.940682281059 179.94623655914  113.789205702648 181.290322580645  113.470468431772 181.290322580645  C 111.558044806517 181.290322580645  106.591055668703 177.258064516129  98.5695010183299 169.193548387097  C 90.5479463679566 161.129032258065  86.5371690427698 156.129032258065  86.5371690427698 154.193548387097  C 86.5371690427698 152.795698924731  87.0683978275628 151.559139784946  88.1308553971487 150.483870967742  C 96.4180244399185 142.204301075269  106.83010862186 135.698924731183  119.367107942974 130.967741935484  C 131.904107264087 126.236559139785  144.281737949762 123.870967741935  156.5 123.870967741935  C 168.718262050238 123.870967741935  181.095892735913 126.236559139785  193.632892057026 130.967741935484  C 206.16989137814 135.698924731183  216.581975560081 142.204301075269  224.869144602851 150.483870967742  C 225.931602172437 151.559139784946  226.46283095723 152.795698924731  226.46283095723 154.193548387097  C 226.46283095723 156.129032258065  222.452053632043 161.129032258065  214.43049898167 169.193548387097  Z M 257.699083503055 125.322580645161  C 249.730651731161 133.387096774194  244.843346911066 137.41935483871  243.03716904277 137.41935483871  C 241.868465716225 137.41935483871  240.646639511202 136.989247311828  239.371690427699 136.129032258065  C 224.922267481331 124.838709677419  211.535302104549 116.532258064516  199.210794297352 111.209677419355  C 186.886286490156 105.887096774194  172.649355057705 103.225806451613  156.5 103.225806451613  C 147.46911065852 103.225806451613  138.4116598778 104.408602150538  129.327647657841 106.774193548387  C 120.243635437882 109.139784946237  112.328326544467 111.989247311828  105.581720977597 115.322580645161  C 98.8351154107264 118.655913978495  92.8056687033265 121.989247311828  87.4933808553972 125.322580645161  C 82.1810930074678 128.655913978495  77.9843856076035 131.505376344086  74.9032586558045 133.870967741935  C 71.8221317040054 136.236559139785  70.1753224711473 137.41935483871  69.9628309572301 137.41935483871  C 68.1566530889341 137.41935483871  63.2693482688391 133.387096774194  55.300916496945 125.322580645161  C 47.3324847250509 117.258064516129  43.3482688391039 112.258064516129  43.3482688391039 110.322580645161  C 43.3482688391039 109.032258064516  43.8794976238968 107.849462365591  44.9419551934827 106.774193548387  C 58.9663951120163 92.5806451612903  75.9657162253904 81.5591397849462  95.9399185336049 73.7096774193548  C 115.914120841819 65.8602150537634  136.100814663951 61.9354838709677  156.5 61.9354838709677  C 176.899185336049 61.9354838709677  197.085879158181 65.8602150537634  217.060081466395 73.7096774193548  C 237.03428377461 81.5591397849462  254.033604887984 92.5806451612903  268.058044806517 106.774193548387  C 269.120502376103 107.849462365591  269.651731160896 109.032258064516  269.651731160896 110.322580645161  C 269.651731160896 112.258064516129  265.667515274949 117.258064516129  257.699083503055 125.322580645161  Z M 300.96766802444 81.6129032258065  C 292.946113374067 89.6774193548387  288.032247114732 93.7096774193548  286.226069246436 93.7096774193548  C 285.057365919891 93.7096774193548  283.888662593347 93.2258064516129  282.719959266802 92.258064516129  C 263.701968771215 75.3763440860215  243.966819416158 62.6612903225806  223.514511201629 54.1129032258065  C 203.062202987101 45.5645161290322  180.724032586558 41.2903225806452  156.5 41.2903225806452  C 132.275967413442 41.2903225806452  109.937797012899 45.5645161290322  89.4854887983707 54.1129032258065  C 69.0331805838425 62.6612903225806  49.2980312287848 75.3763440860215  30.2800407331976 92.258064516129  C 29.1113374066531 93.2258064516129  27.9426340801086 93.7096774193548  26.7739307535642 93.7096774193548  C 24.9677528852682 93.7096774193548  20.0538866259335 89.6774193548387  12.0323319755601 81.6129032258065  C 4.01077732518669 73.5483870967742  0 68.5483870967742  0 66.6129032258065  C 0 65.2150537634408  0.53122878479294 63.9784946236559  1.59368635437882 62.9032258064516  C 21.4616429056348 42.9032258064516  45.1013238289206 27.4193548387097  72.5127291242362 16.4516129032258  C 99.9241344195519 5.48387096774193  127.91989137814 0  156.5 0  C 185.08010862186 0  213.075865580448 5.48387096774193  240.487270875764 16.4516129032258  C 267.898676171079 27.4193548387097  291.538357094365 42.9032258064516  311.406313645621 62.9032258064516  C 312.468771215207 63.9784946236559  313 65.2150537634408  313 66.6129032258065  C 313 68.5483870967742  308.989222674813 73.5483870967742  300.96766802444 81.6129032258065  Z " fill-rule="nonzero" fill="#000000" stroke="none" transform="matrix(1 0 0 1 31 133 )" />
  </g>
</svg>