<?xml version="1.0" encoding="utf-8"?>
<svg version="1.1" xmlns:xlink="http://www.w3.org/1999/xlink" width="16px" height="16px" xmlns="http://www.w3.org/2000/svg">
  <g transform="matrix(1 0 0 1 -40 -374 )">
    <path d="M 14.4 14.4877726371447  L 14.4 1.35360211500331  L 1.6 1.35360211500331  L 1.6 14.4877726371447  L 6.8875 10.1943159286186  L 8 9.29543952412426  L 9.1125 10.1943159286186  L 14.4 14.4877726371447  Z M 1.45 0  L 14.55 0  C 14.7416666666667 0  14.925 0.0317250495703902  15.1 0.0951751487111707  C 15.375 0.186825291914516  15.59375 0.331350517735183  15.75625 0.528750826173166  C 15.91875 0.726151134611147  16 0.944701476096055  16 1.18440185062789  L 16 14.8155981493721  C 16 15.0552985239039  15.91875 15.2738488653889  15.75625 15.4712491738268  C 15.59375 15.6686494822648  15.375 15.8131747080855  15.1 15.9048248512888  C 14.9416666666667 15.961224939414  14.7583333333333 15.9894249834765  14.55 15.9894249834765  C 14.15 15.9894249834765  13.8041666666667 15.8766248072263  13.5125 15.6510244547257  L 8 11.1672174487773  L 2.4875 15.6510244547257  C 2.1875 15.8836748182419  1.84166666666667 16  1.45 16  C 1.25833333333333 16  1.075 15.9682749504296  0.9 15.9048248512888  C 0.625 15.8131747080855  0.40625 15.6686494822648  0.24375 15.4712491738268  C 0.08125 15.2738488653889  0 15.0552985239039  0 14.8155981493721  L 0 1.18440185062789  C 0 0.944701476096055  0.08125 0.726151134611147  0.24375 0.528750826173166  C 0.40625 0.331350517735183  0.625 0.186825291914516  0.9 0.0951751487111707  C 1.075 0.0317250495703902  1.25833333333333 0  1.45 0  Z " fill-rule="nonzero" fill="#eeeeee" stroke="none" transform="matrix(1 0 0 1 40 374 )" />
  </g>
</svg>