<?xml version="1.0" encoding="utf-8"?>
<svg version="1.1" xmlns:xlink="http://www.w3.org/1999/xlink" width="200px" height="45px" xmlns="http://www.w3.org/2000/svg">
  <g transform="matrix(1 0 0 1 2 0 )">
    <path d="M 180.245605686695 0.5  C 180.245605686695 0.5  183.741588687774 0.893298087621447  183.741588687774 0.893298087621447  C 183.741588687774 0.893298087621447  197.460129584523 22.5  197.460129584523 22.5  C 197.460129584523 22.5  183.741588687774 44.1067019123785  183.741588687774 44.1067019123785  C 183.741588687774 44.1067019123785  180.245605686695 44.5  180.245605686695 44.5  C 180.245605686695 44.5  -1.50000000000001 44.5  -1.50000000000001 44.5  C -1.50000000000001 44.5  -1.5 0.499999999999998  -1.5 0.499999999999998  C -1.5 0.499999999999998  180.245605686695 0.5  180.245605686695 0.5  Z " fill-rule="nonzero" fill="#ffffff" stroke="none" />
    <path d="M 180.245605686695 0.5  C 180.245605686695 0.5  183.741588687774 0.893298087621447  183.741588687774 0.893298087621447  C 183.741588687774 0.893298087621447  197.460129584523 22.5  197.460129584523 22.5  C 197.460129584523 22.5  183.741588687774 44.1067019123785  183.741588687774 44.1067019123785  C 183.741588687774 44.1067019123785  180.245605686695 44.5  180.245605686695 44.5  C 180.245605686695 44.5  -1.50000000000001 44.5  -1.50000000000001 44.5  C -1.50000000000001 44.5  -1.5 0.499999999999998  -1.5 0.499999999999998  C -1.5 0.499999999999998  180.245605686695 0.5  180.245605686695 0.5  Z " stroke-width="1" stroke="#f2f2f2" fill="none" />
  </g>
</svg>