<?xml version="1.0" encoding="utf-8"?>
<svg version="1.1" xmlns:xlink="http://www.w3.org/1999/xlink" width="103px" height="45px" xmlns="http://www.w3.org/2000/svg">
  <g transform="matrix(1 0 0 1 2 0 )">
    <path d="M 83.0180376317391 0.5  C 83.0180376317391 0.5  86.7110512854913 1.30672628358665  86.7110512854913 1.30672628358665  C 86.7110512854913 1.30672628358665  100.430782239057 22.5  100.430782239057 22.5  C 100.430782239057 22.5  86.7110512854913 43.6932737164134  86.7110512854913 43.6932737164134  C 86.7110512854913 43.6932737164134  83.0180376317391 44.5  83.0180376317391 44.5  C 83.0180376317391 44.5  -1.5 44.5  -1.5 44.5  C -1.5 44.5  -1.5 0.499999999999998  -1.5 0.499999999999998  C -1.5 0.499999999999998  83.0180376317391 0.5  83.0180376317391 0.5  Z " fill-rule="nonzero" fill="#ffffff" stroke="none" />
    <path d="M 83.0180376317391 0.5  C 83.0180376317391 0.5  86.7110512854913 1.30672628358665  86.7110512854913 1.30672628358665  C 86.7110512854913 1.30672628358665  100.430782239057 22.5  100.430782239057 22.5  C 100.430782239057 22.5  86.7110512854913 43.6932737164134  86.7110512854913 43.6932737164134  C 86.7110512854913 43.6932737164134  83.0180376317391 44.5  83.0180376317391 44.5  C 83.0180376317391 44.5  -1.5 44.5  -1.5 44.5  C -1.5 44.5  -1.5 0.499999999999998  -1.5 0.499999999999998  C -1.5 0.499999999999998  83.0180376317391 0.5  83.0180376317391 0.5  Z " stroke-width="1" stroke="#f2f2f2" fill="none" />
  </g>
</svg>