<?xml version="1.0" encoding="utf-8"?>
<svg version="1.1" xmlns:xlink="http://www.w3.org/1999/xlink" width="99px" height="45px" xmlns="http://www.w3.org/2000/svg">
  <g transform="matrix(1 0 0 1 -198 0 )">
    <path d="M 279.00865338205 0.5  C 279.00865338205 0.5  282.708754044569 1.34093196875421  282.708754044569 1.34093196875421  C 282.708754044569 1.34093196875421  296.428739210092 22.5  296.428739210092 22.5  C 296.428739210092 22.5  282.708754044569 43.6590680312458  282.708754044569 43.6590680312458  C 282.708754044569 43.6590680312458  279.00865338205 44.5  279.00865338205 44.5  C 279.00865338205 44.5  198.5 44.5  198.5 44.5  C 198.5 44.5  198.5 0.499999999999998  198.5 0.499999999999998  C 198.5 0.499999999999998  279.00865338205 0.5  279.00865338205 0.5  Z " fill-rule="nonzero" fill="#ffffff" stroke="none" />
    <path d="M 279.00865338205 0.5  C 279.00865338205 0.5  282.708754044569 1.34093196875421  282.708754044569 1.34093196875421  C 282.708754044569 1.34093196875421  296.428739210092 22.5  296.428739210092 22.5  C 296.428739210092 22.5  282.708754044569 43.6590680312458  282.708754044569 43.6590680312458  C 282.708754044569 43.6590680312458  279.00865338205 44.5  279.00865338205 44.5  C 279.00865338205 44.5  198.5 44.5  198.5 44.5  C 198.5 44.5  198.5 0.499999999999998  198.5 0.499999999999998  C 198.5 0.499999999999998  279.00865338205 0.5  279.00865338205 0.5  Z " stroke-width="1" stroke="#f2f2f2" fill="none" />
  </g>
</svg>