<?xml version="1.0" encoding="utf-8"?>
<svg version="1.1" xmlns:xlink="http://www.w3.org/1999/xlink" width="137px" height="45px" xmlns="http://www.w3.org/2000/svg">
  <g transform="matrix(1 0 0 1 -76 0 )">
    <path d="M 195.097803754095 0.5  C 195.097803754095 0.5  198.726040205545 1.09587824932579  198.726040205545 1.09587824932579  C 198.726040205545 1.09587824932579  212.444705374398 22.5  212.444705374398 22.5  C 212.444705374398 22.5  198.726040205545 43.9041217506742  198.726040205545 43.9041217506742  C 198.726040205545 43.9041217506742  195.097803754095 44.5  195.097803754095 44.5  C 195.097803754095 44.5  76.5 44.5  76.5 44.5  C 76.5 44.5  76.5 0.499999999999998  76.5 0.499999999999998  C 76.5 0.499999999999998  195.097803754095 0.5  195.097803754095 0.5  Z " fill-rule="nonzero" fill="#ffffff" stroke="none" />
    <path d="M 195.097803754095 0.5  C 195.097803754095 0.5  198.726040205545 1.09587824932579  198.726040205545 1.09587824932579  C 198.726040205545 1.09587824932579  212.444705374398 22.5  212.444705374398 22.5  C 212.444705374398 22.5  198.726040205545 43.9041217506742  198.726040205545 43.9041217506742  C 198.726040205545 43.9041217506742  195.097803754095 44.5  195.097803754095 44.5  C 195.097803754095 44.5  76.5 44.5  76.5 44.5  C 76.5 44.5  76.5 0.499999999999998  76.5 0.499999999999998  C 76.5 0.499999999999998  195.097803754095 0.5  195.097803754095 0.5  Z " stroke-width="1" stroke="#f2f2f2" fill="none" />
  </g>
</svg>